<?xml version="1.0" encoding="UTF-8"?>
<svg xmlns="http://www.w3.org/2000/svg" xmlns:xlink="http://www.w3.org/1999/xlink" width="300px" height="193px" viewBox="0 0 300 193" version="1.1">
<g id="surface1">
<path style=" stroke:none;fill-rule:nonzero;fill:rgb(0%,0%,0%);fill-opacity:1;" d="M 166.140625 76.707031 C 164.519531 77.609375 155.578125 80.015625 153.898438 80.015625 C 151.921875 80.015625 148.859375 81.941406 147.421875 84.105469 C 146.160156 86.03125 145.078125 86.632812 139.738281 88.679688 C 129.238281 92.53125 123.839844 95.355469 122.039062 97.945312 C 121.140625 99.148438 119.699219 100.773438 118.859375 101.492188 C 117.539062 102.636719 117.421875 102.996094 118.078125 103.898438 C 119.398438 105.824219 120.121094 107.929688 120.421875 111.121094 C 120.71875 113.765625 120.960938 114.246094 122.21875 114.609375 C 123 114.789062 124.679688 115.871094 125.941406 117.015625 C 129 119.84375 130.378906 119.722656 141.238281 116.113281 C 146.160156 114.429688 150.480469 113.105469 150.78125 113.105469 C 152.160156 113.105469 149.160156 115.390625 147.359375 115.75 C 145.921875 116.050781 145.140625 116.65625 144.421875 118.21875 C 143.640625 119.84375 143.160156 120.203125 142.078125 120.023438 C 140.339844 119.664062 130.921875 122.308594 127.261719 124.234375 C 125.699219 125.015625 120.539062 129.046875 115.800781 133.257812 L 107.101562 140.898438 L 104.460938 140.476562 C 98.519531 139.574219 93.898438 140.058594 87.121094 142.34375 C 83.21875 143.667969 79.140625 143.425781 76.738281 141.800781 C 75.601562 141.019531 72.300781 138.972656 69.300781 137.230469 C 61.679688 132.65625 60.601562 131.515625 60.601562 128.265625 C 60.601562 126.160156 60.238281 125.316406 58.859375 123.875 C 57.898438 122.910156 56.578125 122.128906 55.921875 122.128906 C 50.761719 122.128906 42.179688 125.558594 35.460938 130.371094 C 30.359375 134.042969 25.679688 135.726562 16.980469 136.867188 C 7.199219 138.191406 2.578125 139.273438 1.140625 140.539062 C -1.019531 142.464844 1.019531 143.1875 8.820312 143.1875 C 13.679688 143.1875 16.261719 143.488281 17.878906 144.148438 C 20.761719 145.351562 24.359375 144.871094 29.101562 142.644531 C 31.199219 141.621094 34.078125 140.78125 36.058594 140.660156 C 37.859375 140.539062 40.621094 139.816406 42.121094 139.035156 C 45.539062 137.410156 49.921875 137.769531 53.28125 139.996094 C 56.820312 142.464844 62.339844 147.457031 62.699219 148.601562 C 63.121094 149.984375 59.578125 161.234375 58.621094 161.476562 C 58.199219 161.59375 56.21875 162.015625 54.179688 162.378906 C 48.300781 163.460938 45.71875 164.785156 44.21875 167.550781 C 43.5 168.816406 41.519531 170.980469 39.78125 172.304688 C 38.101562 173.6875 36.660156 175.011719 36.660156 175.3125 C 36.601562 176.09375 45.421875 175.253906 49.140625 174.167969 C 50.941406 173.628906 53.339844 172.542969 54.539062 171.824219 C 56.941406 170.320312 61.800781 165.207031 61.800781 164.242188 C 61.800781 163.941406 62.941406 163.097656 64.378906 162.378906 C 65.761719 161.65625 67.738281 160.453125 68.761719 159.730469 L 70.621094 158.285156 L 76.558594 164.300781 C 81.839844 169.597656 82.738281 170.257812 84.601562 170.257812 C 85.738281 170.257812 88.019531 170.4375 89.578125 170.621094 C 91.558594 170.859375 93.300781 170.679688 94.980469 170.019531 C 96.359375 169.535156 99.660156 168.515625 102.238281 167.851562 C 107.820312 166.410156 117 162.136719 124.199219 157.625 C 131.699219 152.933594 132.238281 152.75 139.140625 153.171875 L 145.078125 153.59375 L 144.539062 155.457031 C 143.878906 157.867188 142.800781 170.019531 142.800781 175.253906 C 142.800781 178.5 142.558594 179.765625 141.601562 180.90625 C 140.941406 181.75 140.398438 183.3125 140.398438 184.335938 C 140.398438 186.5625 139.558594 188.1875 138.960938 187.164062 C 138.421875 186.320312 135.601562 186.320312 135.601562 187.164062 C 135.601562 187.523438 136.621094 188.910156 137.941406 190.171875 C 139.980469 192.21875 140.578125 192.519531 143.039062 192.519531 C 146.28125 192.519531 148.441406 191.316406 149.28125 189.03125 C 149.640625 188.125 150.71875 184.214844 151.738281 180.367188 C 153.71875 172.664062 157.921875 161.835938 159.480469 160.453125 C 160.078125 159.910156 162.480469 159.429688 165.601562 159.1875 C 169.621094 158.949219 171.539062 158.40625 175.019531 156.78125 C 177.421875 155.578125 179.820312 154.796875 180.238281 154.976562 C 181.261719 155.339844 186.601562 152.75 187.800781 151.308594 C 188.460938 150.527344 188.460938 150.042969 187.921875 149.203125 C 187.320312 148.238281 187.558594 148 189.78125 147.15625 C 191.160156 146.675781 193.078125 146.132812 193.980469 145.894531 C 195.238281 145.652344 195.960938 144.929688 196.800781 142.886719 C 197.699219 140.78125 201.359375 135.605469 204.058594 132.71875 C 204.898438 131.753906 208.199219 133.558594 208.199219 135.003906 C 208.199219 137.46875 206.398438 142.523438 204.78125 144.390625 C 203.398438 146.074219 203.339844 146.433594 204.058594 147.757812 C 204.71875 149.082031 204.660156 150.226562 203.699219 155.699219 C 202.199219 164.542969 202.199219 165.085938 203.941406 165.324219 C 204.660156 165.445312 205.980469 165.386719 206.761719 165.207031 C 208.441406 164.785156 208.679688 162.738281 207.300781 160.875 C 206.761719 160.089844 206.460938 158.226562 206.398438 155.21875 C 206.398438 150.707031 206.398438 150.644531 208.199219 149.984375 C 209.398438 149.5625 210 148.902344 210 148.058594 C 210 147.398438 210.539062 144.992188 211.261719 142.765625 C 213.539062 135.304688 212.699219 135.964844 220.019531 135.964844 C 223.621094 136.027344 227.878906 136.386719 229.5 136.808594 C 232.140625 137.53125 232.679688 137.53125 234.238281 136.628906 C 237.179688 134.945312 237.238281 133.5 234.539062 129.46875 C 232.5 126.460938 232.199219 125.617188 232.738281 124.59375 C 233.28125 123.691406 233.820312 123.453125 235.378906 123.691406 C 237.78125 124.054688 237.898438 123.992188 241.378906 118.699219 C 244.320312 114.1875 244.621094 113.164062 243.601562 112.140625 C 243.238281 111.78125 242.878906 109.617188 242.761719 107.328125 C 242.398438 97.882812 235.800781 90.242188 228 90.242188 C 224.398438 90.242188 221.640625 91.507812 216.960938 95.296875 L 213.71875 98.003906 L 213.480469 91.144531 C 213.300781 84.890625 213.179688 84.167969 211.859375 82.78125 C 210.660156 81.519531 209.878906 81.21875 207.359375 81.21875 C 205.621094 81.21875 203.160156 81.761719 201.660156 82.421875 C 200.21875 83.082031 198.960938 83.625 198.839844 83.625 C 198.71875 83.625 198.78125 82.902344 198.960938 81.941406 C 199.140625 81.039062 198.898438 79.835938 198.421875 79.171875 C 197.761719 78.210938 197.160156 78.089844 194.820312 78.453125 C 192.960938 78.753906 191.820312 79.292969 191.398438 80.074219 C 191.039062 80.675781 190.199219 81.21875 189.601562 81.21875 C 188.339844 81.21875 187.980469 80.316406 189 79.714844 C 189.71875 79.292969 189.78125 77.609375 189.058594 76.527344 C 188.699219 75.925781 188.101562 75.984375 186.359375 77.066406 C 183.539062 78.753906 178.800781 78.691406 175.078125 77.007812 C 172.078125 75.625 168.359375 75.503906 166.140625 76.707031 Z M 210.421875 84.648438 C 210.898438 85.25 211.199219 87.476562 211.199219 89.882812 L 211.199219 94.152344 L 210.058594 92.46875 C 209.460938 91.507812 207.601562 89.460938 205.859375 87.898438 C 204.179688 86.332031 202.800781 84.769531 202.800781 84.40625 C 202.800781 82.78125 209.21875 82.964844 210.421875 84.648438 Z M 201.71875 87.054688 C 203.101562 88.738281 203.460938 90.242188 202.738281 91.566406 C 202.199219 92.589844 201.71875 92.710938 199.320312 92.347656 C 195.058594 91.6875 194.21875 89.28125 197.578125 87.234375 C 199.921875 85.792969 200.578125 85.730469 201.71875 87.054688 Z M 210.300781 128.6875 C 209.761719 130.371094 209.101562 131.753906 208.921875 131.753906 C 208.679688 131.753906 207.898438 131.273438 207.179688 130.671875 L 205.800781 129.648438 L 206.941406 127.722656 C 207.898438 126.160156 210.179688 124.957031 211.140625 125.5 C 211.199219 125.617188 210.839844 127.003906 210.300781 128.6875 Z M 221.28125 127.664062 C 222.300781 128.324219 223.199219 129.226562 223.199219 129.648438 C 223.199219 130.070312 223.378906 130.851562 223.558594 131.332031 C 223.980469 132.476562 219.359375 134.34375 216.839844 134.042969 C 215.21875 133.859375 215.101562 133.679688 214.921875 130.671875 C 214.800781 128.808594 215.039062 127.0625 215.460938 126.582031 C 216.300781 125.558594 218.460938 125.980469 221.28125 127.664062 Z M 93 152.210938 C 93.71875 152.210938 93.660156 152.449219 92.820312 153.113281 C 91.558594 154.015625 90.238281 153.773438 89.761719 152.449219 C 89.519531 151.847656 89.820312 151.667969 90.78125 151.847656 C 91.5 152.03125 92.519531 152.148438 93 152.210938 Z M 93 152.210938 "/>
</g>
</svg>
